# xmcd CD database file
#
# Track frame offsets:
#	183
#	12900
#	22385
#	35393
#	48833
#	61095
#	79945
#	94918
#	107445
#	124158
#	143935
#
# Disc length: 2050 seconds
#
# Revision: 0
# Processed by: cddbd v1.4PL0 Copyright (c) Steve Scherf et al.
# Submitted via: Feurio! 1.65 - http://www.feurio.com
#
DISCID=8d08000b
DTITLE=Tramp - Tramp
DYEAR=1900
DGENRE=Blues
TTITLE0=Own Up
TTITLE1=Same Old Thing
TTITLE2=What You Gonna Do
TTITLE3=Somebody Watching Me
TTITLE4=Too Late Now
TTITLE5=Baby What You Want Me To Do
TTITLE6=Street Walking Blues
TTITLE7=On The Scene
TTITLE8=Month Of Sundays
TTITLE9=Hard Work
TTITLE10=Another Day
EXTD=ARD Appaloosa records AP 062-2
EXTT0=
EXTT1=
EXTT2=
EXTT3=
EXTT4=
EXTT5=
EXTT6=
EXTT7=
EXTT8=
EXTT9=
EXTT10=
PLAYORDER=
